<svg id="Layer_1" data-name="Layer 1" xmlns="http://www.w3.org/2000/svg" viewBox="0 0 46 44.35"><defs><style>.cls-1{fill:#131f31;}.cls-2{fill:#00b2e3;}</style></defs><path class="cls-1" d="M24,36.88A16.9,16.9,0,1,0,7.1,20,16.9,16.9,0,0,0,24,36.88Z" transform="translate(-1 -2)"/><path class="cls-2" d="M13.56,44.55l0-.25a.64.64,0,0,0-.07-.24.7.7,0,0,1-.08-.2l-.12-.21a2.19,2.19,0,0,1,0,.48,1,1,0,0,1-.13.35l-.05.15,0,.08-.06.07a.42.42,0,0,0,0,.09s0,0-.07,0-.05.06-.09.07a.34.34,0,0,1-.11.05.34.34,0,0,0-.19.06.5.5,0,0,1-.17.08l-.27.07-.11,0,0,.06,0,0v0a1.28,1.28,0,0,0-.26,0,.75.75,0,0,1-.16,0h-.26a.23.23,0,0,1-.15,0s0-.09,0-.09,0-.09,0-.13a.94.94,0,0,1,0-.1v0l0,0v0l0-.08v-.16h-.05l-.07,0,0,0-.07.06s0,0,0,0-.09-.11,0-.13.05,0,.08,0,.07.08.1,0a.14.14,0,0,1,.07-.05l.05-.07,0,0s0-.32,0-.41-.07-.15-.07-.22,0-.27,0-.43,0-.53,0-.6,0-.08.07-.13a1.92,1.92,0,0,0,0-.24s-.05-.06,0-.12a.21.21,0,0,0,0-.13,5.28,5.28,0,0,1,0-.53.48.48,0,0,1,.17-.31.81.81,0,0,1,.16-.14l.14-.07,0-.06,0,0,.09-.07s.13-.07.13-.11a0,0,0,0,1,0,0,3.9,3.9,0,0,0-.4,0c-.11,0-.13.06-.2,0a1.41,1.41,0,0,0-.31,0h-.07l-.09,0h0l0,.07-.05,0-.07.09v.08a.75.75,0,0,1,0-.15.77.77,0,0,0,0-.1l0,0a.38.38,0,0,1-.18,0,.28.28,0,0,0-.17,0l-.1.07H9.93l0-.08H9.58l-.09,0H9.34s0,0-.1,0a.41.41,0,0,0-.19,0l.13.1,0,0,.07.06a1,1,0,0,1,.12.13l0,.07a.17.17,0,0,1,.11.1,1.83,1.83,0,0,1,.08.27c0,.13,0,.26,0,.26l0,.08,0,.08a.86.86,0,0,1,0,.17,1,1,0,0,0,.05.27v.37c0,.12,0,.3,0,.3v.2a2.13,2.13,0,0,1,0,.4.69.69,0,0,0,0,.19.25.25,0,0,1,0,.17s0,.39,0,.49a3.91,3.91,0,0,1,0,.49,1.81,1.81,0,0,1-.14.33l-.2.27a1.5,1.5,0,0,0-.21.12L9,45.93,8.83,46s0,0,.07,0h.25a1.49,1.49,0,0,0,.22,0l.07,0a1,1,0,0,1,.22,0h.1l.36,0a4.05,4.05,0,0,0,.62,0s.2,0,.2,0,.05-.05.09,0,.08,0,.11,0,.16.08.16,0,0-.13.09-.12l.08,0,0,0,0,0,0,0a.71.71,0,0,1,.19,0,2.3,2.3,0,0,0,.37,0,.84.84,0,0,1,.26,0s.06-.06.09,0h.34l.22,0c.07,0,.19.11.24.17s.1-.23.16-.39a2.46,2.46,0,0,0,.12-.53l.05-.23s0,0,0-.14S13.56,44.55,13.56,44.55Zm7.58,1.06a1.17,1.17,0,0,0-.2-.19.52.52,0,0,1-.17-.19l-.07-.13,0-.11-.06-.06,0-.09,0,0-.06-.14a4.06,4.06,0,0,0-.18-.53,2.59,2.59,0,0,1-.17-.37s-.09-.21-.11-.28a1.36,1.36,0,0,0-.05-.14l-.07-.07-.05,0h-.09v-.11l.08-.09V43l-.06-.1a1.52,1.52,0,0,1-.18-.3,2.93,2.93,0,0,0-.12-.29l-.06-.19-.12-.38a2,2,0,0,0-.15-.35l-.06-.19s0-.16-.07-.18l-.1,0,0-.1s-.12-.25-.14-.31l-.26.28a1.68,1.68,0,0,1-.16.15,1.14,1.14,0,0,0-.24.14l-.14.13s-.28.15-.33.19l-.09.08-.08.09h-.07a2.4,2.4,0,0,0-.23.2c0,.06-.17.14-.19.24a2.9,2.9,0,0,1,.27-.11l.18,0,.08,0,.18,0a.13.13,0,0,1,.13,0c.08.05.1,0,.17,0a.48.48,0,0,1,.13,0l0,0a.19.19,0,0,1,.08.05l.06.12a.58.58,0,0,1-.07.11l-.09.11-.05.05s0,0-.07,0a.68.68,0,0,0-.14.1l0,0-.09.1a.54.54,0,0,0-.07.13.9.9,0,0,0,0,.12s0,0-.06,0,0,.13-.09.16l0,0a.65.65,0,0,1,0,.17,1,1,0,0,1-.09.2s-.08.1-.07.14a.51.51,0,0,1,0,.09h-.07s-.08.22-.09.26v0h-.45c-.13,0,0,0,0,0l-.13,0a.4.4,0,0,0-.16,0l-.19.06s0,.07.1.12l.27.07a.46.46,0,0,0,.17.06c.09,0,0,0,0,0a.19.19,0,0,1,.1,0l0,0-.08.05.19,0-.22.56a1.12,1.12,0,0,1-.15.24s0,0-.12.1a2,2,0,0,1-.39.33l-.15.08a.3.3,0,0,0-.13.12L16,46a.87.87,0,0,0,.2,0l.21,0a.9.9,0,0,1,.24,0l.17,0H17a.55.55,0,0,0,.22,0H18l-.18-.15a1.28,1.28,0,0,1-.18-.12s-.12,0-.13-.12a1.09,1.09,0,0,1,0-.26v-.12a.38.38,0,0,1,0-.18c0-.08,0-.24,0-.24l.06-.34.1.07h.17a1.31,1.31,0,0,1,.28,0,2.33,2.33,0,0,0,.48,0h.22a.7.7,0,0,0,.14,0h.22c.14,0,.17,0,.17,0h.09a1.08,1.08,0,0,1,0,.16c0,.1,0,.19,0,.35v.25s.05.06-.05.17a1.54,1.54,0,0,0-.17.23l-.13.15-.07,0a.56.56,0,0,1,.16,0,.27.27,0,0,0,.2,0l.25,0a2.55,2.55,0,0,1,.42,0l.24,0a.76.76,0,0,1,.29,0h.2s.14,0,.19,0,.1,0,.1,0l.08,0h.16l.24,0h.14a3.58,3.58,0,0,0-.38-.3C21.33,45.7,21.14,45.61,21.14,45.61Zm-2.28-1.85-.2,0H18.5l-.06,0-.06,0s0,0,0,0l-.09,0s-.08,0-.08,0-.06-.1-.06-.1h-.07l0-.07h-.09a2.3,2.3,0,0,1,.2-.45,1.64,1.64,0,0,0,.17-.39.85.85,0,0,1,.11-.21,1.93,1.93,0,0,0,.1-.19s.18.28.22.37a.77.77,0,0,0,.06.14.84.84,0,0,0,.06.18l.08.2.1.19.06.16A1.41,1.41,0,0,1,18.86,43.76Zm20.28-2.54c.2-.1.39-.23.59-.34v-.07H39l0,0-.33.05c-.13,0-.27,0-.4,0s-.43,0-.65.07-.3,0-.45,0a1.31,1.31,0,0,0,.27.26.49.49,0,0,1,.2.43c0,.25.11.25.24.42-.12.21-.22-.18-.22.11,0,.12,0,.65,0,.77,0,.4,0,.8,0,1.2s0,.67,0,1-.07.61-.42.8l-.3.21,0,0a2.26,2.26,0,0,0,.9,0c.31-.14.58.09.87,0l.45,0c.21,0-.09-.1.13-.08,0,0,.18.1.23.1l0,0-.23-.25a3.08,3.08,0,0,1-.24-.27.58.58,0,0,1-.13-.5,1.87,1.87,0,0,0,0-.58c0-.33,0-.66,0-1s-.06-.78,0-1.16.07-.6.09-.9A.25.25,0,0,1,39.14,41.22ZM26.83,43.38a2.45,2.45,0,0,0-.35-.26L26.12,43c-.11,0-.22-.18-.32-.19,0-.2-.13-.12-.21-.1s0-.06,0-.08-.27-.2-.4-.28a1.33,1.33,0,0,0-.46-.23,1,1,0,0,1,.37-.66c.09,0,.23-.07.32-.1s.27,0,.42,0c0,0,.1-.09.09,0a1.8,1.8,0,0,1,.45.09.36.36,0,0,1,.16.11,1.19,1.19,0,0,0,.22.12,1.77,1.77,0,0,1,.34.46,1,1,0,0,1,.19.37c0-.27,0-.56-.07-.83s0-.25-.05-.38,0-.39,0-.58c-.25.27-.64.15-.94.19s-.69-.07-1,0c-.08,0-.13.07-.19.08s-.11,0-.17,0a1.06,1.06,0,0,0-.45.25,1.77,1.77,0,0,0-.58.68,2.69,2.69,0,0,0-.19.38,2.63,2.63,0,0,1-.07.42c0,.05-.08.08-.12.12a.85.85,0,0,0,.34.14c.09,0,.18.1.27.13s.11,0,.17,0c0,.22.24.33.37.43a2.79,2.79,0,0,0,.25.17c.09,0,.16.17.24.19v0c.11,0,.17.11.27.12s.22,0,.21.19c.17,0,.32.19.46.26s.32.28.46.3a1.56,1.56,0,0,1-.5.65,1,1,0,0,1-.48.13s-.06,0-.08,0-.07,0-.09,0-.08,0,0,.14h-.06c0,.06,0,.22-.05.24v-.35c-.15,0-.35,0-.48-.15l-.48-.47c-.09-.09-.15-.11-.22-.23s0-.1,0-.14-.08,0-.09-.06a1.66,1.66,0,0,1-.12-.51c0,.17-.06.34-.08.5s0,.33,0,.49a5.36,5.36,0,0,1-.2.92c.1-.11.15-.24.29-.27s.28.09.44.13.46.24.69.29a1.34,1.34,0,0,1,.4.07h0c.2,0,.4,0,.61,0a1.62,1.62,0,0,0,.77-.29c.11-.07.16-.19.27-.26a.88.88,0,0,0,.23-.24c.12-.17.28-.28.26-.55.09,0,.17-.25.2-.35s0-.16.07-.23a.43.43,0,0,1,.25-.11,2.86,2.86,0,0,1-.4-.28C27.25,43.57,27,43.51,26.83,43.38Zm-3.48-.59,0,0,0,0Zm10.09.59c-.12-.07-.22-.2-.35-.26L32.73,43c-.11,0,0,0-.13,0,0-.19-.12-.11-.2-.1s0-.05,0-.07-.47-.35-.59-.43a1.37,1.37,0,0,0-.47-.23,1,1,0,0,1,.38-.66,2.42,2.42,0,0,1,.32-.1c.13,0,.27,0,.41,0s-.12-.15-.12-.18.22.09.21.16a1.8,1.8,0,0,1,.45.09.42.42,0,0,1,.16.11c.07.07.13.07.21.12a1.77,1.77,0,0,1,.34.46c.07.11.27.23.3.4,0-.27-.15-.59-.18-.86s0-.25-.05-.38,0-.39,0-.58c-.25.27-.63.15-.93.19s-.69-.07-1,0c-.08,0-.07.14-.13.16s-.16-.1-.22-.1a1.06,1.06,0,0,0-.45.25,1.77,1.77,0,0,0-.58.68,2.64,2.64,0,0,0-.18.38c0,.12,0,.32-.07.42s-.08,0-.12.06a.72.72,0,0,0,.33.2c.09,0,.48.32.56.34s.11,0,.17,0c0,.22,0,.11.08.21a2.79,2.79,0,0,0,.25.17c.08,0,.15.17.24.19s-.14-.3-.13-.32.3.38.4.39.21,0,.21.19c.16,0,.31.19.45.26s.32.28.46.3a1.74,1.74,0,0,1-.5.65,1,1,0,0,1-.48.13l-.08,0-.09,0c-.05,0-.15.11-.15,0s-.34,0-.47-.15l-.48-.47c-.09-.09-.17,0-.23-.11s0-.1,0-.14-.05-.15-.07-.18a2,2,0,0,1-.12-.51,4,4,0,0,1-.07.5c0,.16,0,.33,0,.49a4.55,4.55,0,0,1-.19.92c.1-.11.15-.24.29-.27s.28.09.43.13.46.24.69.29a1.51,1.51,0,0,1,.41.09s0,0,0,0c.2,0,.38-.08.59-.08a1.58,1.58,0,0,0,.76-.29c.11-.07.16-.19.27-.26a.75.75,0,0,0,.23-.24c.12-.17.28-.28.26-.55.09,0,.16-.25.2-.35s0,0,.07-.06.18-.28.24-.28a4.85,4.85,0,0,1-.4-.28C33.85,43.57,33.64,43.51,33.44,43.38ZM30,42.73l0,0,0,0ZM1,43.07l0,0H1Zm5.05,1.86a2.2,2.2,0,0,1-.34.28.51.51,0,0,1-.22.11s-.09,0-.14,0,0,.07,0,.11l-.19,0-.31,0,0,0-.13,0v0H4.59a1.45,1.45,0,0,1-.72-.25c-.12-.07-.2-.22-.31-.28s-.16,0-.23-.06,0-.08-.05-.1c-.22-.28-.49-.45-.59-.85A2.88,2.88,0,0,0,2.46,43a1.24,1.24,0,0,0,.15-.33,1.73,1.73,0,0,1,.19-.28,2,2,0,0,1,.67-.58,2.6,2.6,0,0,1,.68-.31l.13,0s0-.06.12-.07.27,0,.41,0,0,.07,0,.11.09,0,.14,0a.68.68,0,0,1,.22.12,1.74,1.74,0,0,1,.34.28c.11.12.17.27.27.39s.2.13.28.24c-.06-.36-.16-.73-.2-1.09a2.38,2.38,0,0,0-.19-.55c0-.1-.11-.53-.19-.59-.15.27-.17.49-.43.49s-.49-.08-.74-.07-.44-.05-.68,0a2.63,2.63,0,0,0-.3.09c-.07,0-.19,0-.23,0-.22,0-.41.28-.62.37,0,.11,0,.23.17.26,0,0-.35-.12-.39-.11s-.08.06-.11.08a1.69,1.69,0,0,0-.38.55.79.79,0,0,1-.14.17.93.93,0,0,0-.15.35c-.09.23-.31.3-.46.48a2.89,2.89,0,0,1,.27.44c0,.12.11.22.15.35a.85.85,0,0,0,.11.35,1.91,1.91,0,0,1,.18.38c.08.18.16.36.25.53a.85.85,0,0,0,.32.33,3.91,3.91,0,0,0,.65.44c.09.25.5.35.69.33s.49,0,.74,0,.29-.06.45-.07v0l.31,0a1.51,1.51,0,0,0,.3,0A.82.82,0,0,0,5.72,46c.16,0,.22.09.34.31.08-.06.11-.31.15-.42l0-.09h0l0,0a1.6,1.6,0,0,0,.14-.42c0-.37.14-.74.19-1.1-.07.11-.18.14-.27.24S6.16,44.8,6.05,44.93Zm40.68-.15c-.1.12-.16,0-.27.16a1.81,1.81,0,0,1-.34.28.71.71,0,0,1-.21.11s-.09,0-.14,0,0,.07,0,.11a.62.62,0,0,0-.19,0l-.3,0,0,0-.13,0v0H45a1.48,1.48,0,0,1-.71-.25c-.12-.07-.19-.22-.3-.28s-.16,0-.23-.06,0-.08-.05-.1a2.2,2.2,0,0,1-.59-.85,2.81,2.81,0,0,0-.22-.84,1.66,1.66,0,0,0,.15-.33,2.68,2.68,0,0,1,.18-.28,2.23,2.23,0,0,1,.66-.58,2.66,2.66,0,0,1,.69-.31l.12,0s0-.05.12-.06.48,0,.62,0-.2.06-.2.1.09,0,.15,0a.75.75,0,0,1,.21.12A2.12,2.12,0,0,1,46,42c.11.13.16.28.27.4s.2.13.27.24c-.06-.36-.16-.73-.2-1.09a2.14,2.14,0,0,0-.18-.54c0-.11-.08-.36-.16-.42-.14.26-.2.31-.46.31s-.48-.08-.73-.06-.43,0-.68,0a1.66,1.66,0,0,0-.29.1,1.4,1.4,0,0,0-.23,0c-.22,0-.41.27-.61.36,0,.11-.18.14-.22.15s-.08.06-.1.08c-.2.14-.21.68-.34.89s0-.55,0-.49a3.63,3.63,0,0,0-.31.66,2.22,2.22,0,0,1-.33.63l-.05.13c.07.08.15.06.19.17s.11.22.15.34a.85.85,0,0,0,.11.35,2.69,2.69,0,0,1,.18.38,5.12,5.12,0,0,0,.25.53.76.76,0,0,0,.31.33,4.22,4.22,0,0,0,.64.43c.09.25.5.35.68.33s.49,0,.74,0,.29-.06.44-.06v0a1,1,0,0,0,.3,0l.3,0a1.14,1.14,0,0,0,.25-.06c.17,0,.23.09.34.3.08-.06.11-.31.15-.42a.2.2,0,0,0,0-.08h.05l0,0a1.39,1.39,0,0,0,.14-.42c0-.36.14-.73.19-1.09A4.53,4.53,0,0,1,46.73,44.78Z" transform="translate(-1 -2)"/><path class="cls-2" d="M12.41,33.64a18,18,0,0,0,23.37,0h3.9V29a18,18,0,0,0,0-17.94V6.32h-3.9a18,18,0,0,0-23.37,0H8.51V11A18,18,0,0,0,8.51,29v4.69ZM24.09,4.7A15.28,15.28,0,1,1,8.81,20,15.28,15.28,0,0,1,24.09,4.7Z" transform="translate(-1 -2)"/><path class="cls-2" d="M14.36,12.82,18.28,29.7a2.89,2.89,0,0,1-1,2.07h6.28a5,5,0,0,1-.44-1.86l1.35-6.16c.4,1.84.77,3.66,1.17,5.51a3.73,3.73,0,0,1-.26,2.51h6.24a3.88,3.88,0,0,1-.7-2.3l2.45-14.9a13.77,13.77,0,0,1,2-3.76c-2,0-4.11,0-6,0,.77.72.24,1.89.17,2.75L27.57,24.82a.1.1,0,0,1-.05-.12l-3.2-12.61c-1.14,4.17-2,8.43-3.19,12.57l-.05-.08L18.72,13.29l.12-2.48h-6A3.6,3.6,0,0,1,14.36,12.82Z" transform="translate(-1 -2)"/><path class="cls-2" d="M41.28,12.06h.4V10.59h.54v-.33H40.74v.33h.54Z" transform="translate(-1 -2)"/><path class="cls-2" d="M42.43,12.06h.37V10.79h0l.44,1.27h.3L44,10.78h0v1.28h.37v-1.8h-.56l-.4,1.24h0L43,10.26h-.56Z" transform="translate(-1 -2)"/></svg>